HIERARCHY
ROOT Hips
{
	OFFSET -0.001795 -0.223333 0.028219
	CHANNELS 6 Xposition Yposition Zposition Zrotation Yrotation Xrotation 
	JOINT LeftUpLeg
	{
		OFFSET 0.069520 -0.091406 -0.006815
		CHANNELS 3 Zrotation Yrotation Xrotation
		JOINT LeftLeg
		{
			OFFSET 0.034277 -0.375199 -0.004496
			CHANNELS 3 Zrotation Yrotation Xrotation
			JOINT LeftFoot
			{
				OFFSET -0.013596 -0.397961 -0.043693
				CHANNELS 3 Zrotation Yrotation Xrotation
				JOINT LeftToe
				{
					OFFSET 0.026358 -0.055791 0.119288
					CHANNELS 3 Zrotation Yrotation Xrotation
					End Site
					{
						OFFSET 0.000000 0.000000 0.000000
					}
				}
			}
		}
	}
	JOINT RightUpLeg
	{
		OFFSET -0.067670 -0.090522 -0.004320
		CHANNELS 3 Zrotation Yrotation Xrotation
		JOINT RightLeg
		{
			OFFSET -0.038290 -0.382569 -0.008850
			CHANNELS 3 Zrotation Yrotation Xrotation
			JOINT RightFoot
			{
				OFFSET 0.015774 -0.398415 -0.042312
				CHANNELS 3 Zrotation Yrotation Xrotation
				JOINT RightToe
				{
					OFFSET -0.025372 -0.048144 0.123348
					CHANNELS 3 Zrotation Yrotation Xrotation
					End Site
					{
						OFFSET 0.000000 0.000000 0.000000
					}
				}
			}
		}
	}
	JOINT Spine
	{
		OFFSET -0.002533 0.108963 -0.026696
		CHANNELS 3 Zrotation Yrotation Xrotation
		JOINT Spine1
		{
			OFFSET 0.005487 0.135180 0.001092
			CHANNELS 3 Zrotation Yrotation Xrotation
			JOINT Spine2
			{
				OFFSET 0.001457 0.052922 0.025425
				CHANNELS 3 Zrotation Yrotation Xrotation
				JOINT Neck
				{
					OFFSET -0.002778 0.213870 -0.042857
					CHANNELS 3 Zrotation Yrotation Xrotation
					JOINT Head
					{
						OFFSET 0.005152 0.064970 0.051349
						CHANNELS 3 Zrotation Yrotation Xrotation
						End Site
						{
							OFFSET 0.000000 0.000000 0.000000
						}
					}
				}
				JOINT LeftShoulder
				{
					OFFSET 0.078845 0.121749 -0.034090
					CHANNELS 3 Zrotation Yrotation Xrotation
					JOINT LeftArm
					{
						OFFSET 0.090977 0.030469 -0.008868
						CHANNELS 3 Zrotation Yrotation Xrotation
						JOINT LeftForeArm
						{
							OFFSET 0.259612 -0.012772 -0.027456
							CHANNELS 3 Zrotation Yrotation Xrotation
							JOINT LeftHand
							{
								OFFSET 0.249234 0.008986 -0.001171
								CHANNELS 3 Zrotation Yrotation Xrotation
								End Site
								{
									OFFSET 0.000000 0.000000 0.000000
								}
							}
						}
					}
				}
				JOINT RightShoulder
				{
					OFFSET -0.081759 0.118833 -0.038615
					CHANNELS 3 Zrotation Yrotation Xrotation
					JOINT RightArm
					{
						OFFSET -0.096012 0.032551 -0.009143
						CHANNELS 3 Zrotation Yrotation Xrotation
						JOINT RightForeArm
						{
							OFFSET -0.253742 -0.013329 -0.021401
							CHANNELS 3 Zrotation Yrotation Xrotation
							JOINT RightHand
							{
								OFFSET -0.255298 0.007772 -0.005559
								CHANNELS 3 Zrotation Yrotation Xrotation
								End Site
								{
									OFFSET 0.000000 0.000000 0.000000
								}
							}
						}
					}
				}
			}
		}
	}
}
MOTION
Frames: 11
Frame Time: 0.050000
1.337493 0.973129 2.119079 179.717234 12.495367 -177.737735 -16.211136 -1.361073 -7.434406 -9.243762 -15.212262 23.226166 102.064908 -55.687000 13.555121 0.000000 0.000000 0.000000 27.583996 -10.086291 -29.599582 -39.474922 -19.825955 32.444078 103.346211 -29.739944 14.488863 0.000000 0.000000 0.000000 1.421322 -2.451008 14.128106 -0.982077 -3.250455 -17.891454 -3.643053 4.351540 25.304282 6.047734 -5.253928 -33.380608 0.000000 0.000000 0.000000 14.821476 -11.428399 -89.773737 -14.400658 56.926839 -12.436874 -62.798208 -38.685828 8.468020 0.000000 0.000000 0.000000 19.168512 -30.386641 49.319903 37.025165 50.057805 15.068839 -60.456806 47.071675 -14.180252 0.000000 0.000000 0.000000 
1.400695 0.987130 2.139069 -179.535267 14.426434 -178.106380 -15.196026 -1.019728 -6.177132 -12.072186 -15.240938 21.719829 77.600392 -46.642882 26.888336 0.000000 0.000000 0.000000 22.787910 -8.312529 -26.574534 -39.385458 -20.696747 34.672535 94.289154 -21.844593 17.090706 0.000000 0.000000 0.000000 2.945378 -2.369057 13.406046 -1.115532 -3.214274 -17.259226 -3.819038 4.529695 25.654348 7.678612 -3.327111 -32.899465 0.000000 0.000000 0.000000 12.146942 -12.378169 -82.335084 -24.370506 53.874593 -17.846701 -55.908721 -44.691005 9.253224 0.000000 0.000000 0.000000 20.517665 -29.886665 43.217599 39.491908 45.071340 14.503300 -55.170147 51.436948 -14.228671 0.000000 0.000000 0.000000 
1.466645 0.990568 2.155529 -179.215263 15.616149 -178.762324 -14.059455 -0.782617 -4.553367 -13.704062 -15.059065 19.968624 67.000351 -44.742672 34.191706 0.000000 0.000000 0.000000 17.765960 -6.679358 -23.019498 -39.043915 -21.416757 36.140284 101.446806 -26.626332 13.913000 0.000000 0.000000 0.000000 3.240874 -2.153431 12.621404 -0.952501 -3.031369 -16.767288 -3.989659 2.740176 25.806945 6.720926 -5.802664 -28.984797 0.000000 0.000000 0.000000 10.332930 -11.460690 -76.524538 -33.433863 50.988260 -22.979708 -44.912161 -46.988554 5.938879 0.000000 0.000000 0.000000 20.525090 -27.734370 41.138546 41.336478 42.350624 13.998652 -53.784960 52.407377 -14.788186 0.000000 0.000000 0.000000 
1.534389 0.986270 2.170128 -177.385378 16.254335 -178.388080 -9.211791 -0.543028 -3.915706 -11.059168 -13.292476 19.384893 72.558070 -42.012616 28.250487 0.000000 0.000000 0.000000 12.791980 -8.701381 -23.185435 -39.999117 -23.434373 40.781766 109.112558 -29.633766 15.710025 0.000000 0.000000 0.000000 4.000420 -2.556198 13.138888 0.200890 -1.800671 -18.380333 -4.190419 2.964332 26.747086 10.482773 -1.744381 -31.738413 0.000000 0.000000 0.000000 9.918152 -12.783143 -74.863314 -37.256763 49.680107 -24.670594 -36.888826 -48.182320 3.042224 0.000000 0.000000 0.000000 21.590865 -29.188599 38.317131 43.737052 41.092171 14.791066 -52.808502 51.730936 -13.618794 0.000000 0.000000 0.000000 
1.600476 0.978981 2.183794 -176.250888 18.087339 -178.651628 -3.958976 -1.345010 -4.078983 -13.322976 -13.655184 20.259684 71.649930 -40.556465 32.339600 0.000000 0.000000 0.000000 9.839331 -11.789789 -24.855677 -47.794754 -23.201892 44.682224 103.099544 -29.428482 25.201565 0.000000 0.000000 0.000000 3.753268 -2.619127 13.435113 0.791616 -1.430087 -18.495739 -4.423824 3.531259 27.230907 10.967456 -1.453604 -31.068795 0.000000 0.000000 0.000000 8.024131 -13.481494 -69.524845 -39.939470 45.288994 -24.045517 -29.273864 -51.036168 0.362090 0.000000 0.000000 0.000000 22.471367 -27.856629 38.098056 44.943557 39.268563 13.072369 -50.889122 53.155382 -14.374671 0.000000 0.000000 0.000000 
1.663980 0.975569 2.196413 -175.394874 16.353220 -178.696686 0.782471 -3.198874 -3.888398 -14.775092 -13.737587 19.989430 73.231070 -42.311094 33.465283 0.000000 0.000000 0.000000 5.499951 -17.153440 -26.092907 -50.202167 -22.235992 44.295345 102.629731 -37.017065 28.736691 0.000000 0.000000 0.000000 3.514100 -2.674440 13.677401 1.802109 -1.019768 -19.318690 -4.267622 3.051939 27.663017 11.527692 -2.372943 -30.748531 0.000000 0.000000 0.000000 8.783876 -15.655754 -73.491043 -37.456330 47.899902 -22.669795 -29.035892 -47.965465 -0.070129 0.000000 0.000000 0.000000 21.917117 -28.880430 40.593017 46.243535 40.974309 14.799954 -54.315251 52.325493 -15.381995 0.000000 0.000000 0.000000 
1.725313 0.972058 2.208202 -175.131465 14.787466 -178.353250 4.084800 -5.080803 -3.928305 -14.559733 -13.026862 18.764686 75.499976 -43.442894 32.441140 0.000000 0.000000 0.000000 2.707681 -21.966337 -27.088663 -47.851886 -19.879956 39.031806 91.862500 -33.430114 32.892917 0.000000 0.000000 0.000000 3.875481 -2.542907 13.236728 1.941376 -0.851184 -19.901390 -4.289910 3.912666 28.965334 9.082703 -4.515771 -30.819769 0.000000 0.000000 0.000000 10.812412 -16.459589 -80.386209 -33.708703 53.708896 -22.837798 -33.401865 -43.943510 0.381388 0.000000 0.000000 0.000000 24.190681 -30.994218 46.740075 43.689791 46.234044 13.247347 -59.603817 49.703680 -17.170251 0.000000 0.000000 0.000000 
1.785476 0.967630 2.220928 -176.091159 12.221123 -177.657079 7.451258 -7.120577 -5.867379 -14.921656 -13.067109 19.193128 73.158197 -47.580715 36.342424 0.000000 0.000000 0.000000 -0.942365 -26.961711 -26.448477 -38.283945 -15.939186 30.613622 78.600901 -24.711106 32.792857 0.000000 0.000000 0.000000 3.139214 -2.053725 12.490168 2.620494 -0.986004 -19.968431 -4.288864 4.519698 29.700619 6.439151 -7.852170 -30.675752 0.000000 0.000000 0.000000 13.373273 -18.480969 -90.880793 -22.018599 61.739864 -16.848905 -38.141099 -39.518660 0.663815 0.000000 0.000000 0.000000 22.876336 -32.676102 55.309425 42.266747 55.887820 16.865011 -62.704516 41.518347 -14.357498 0.000000 0.000000 0.000000 
1.845499 0.960607 2.234757 -177.056037 9.003272 -177.534400 9.804294 -8.994131 -7.715181 -15.920107 -13.620433 19.606811 72.838672 -53.884909 40.012521 0.000000 0.000000 0.000000 -3.631340 -29.876587 -24.765759 -34.342619 -13.321335 24.902114 84.019891 -34.913074 31.481157 0.000000 0.000000 0.000000 2.347599 -2.452071 13.703449 1.613792 -0.462881 -22.025706 -1.850353 3.846103 31.193248 5.417965 -9.041151 -33.200009 0.000000 0.000000 0.000000 18.224562 -15.602172 -113.938383 32.070515 68.848465 23.221680 -49.114437 -26.543795 -0.998800 0.000000 0.000000 0.000000 18.773769 -35.003610 68.643006 34.330762 67.998156 18.859227 -66.837697 27.644076 -7.636921 0.000000 0.000000 0.000000 
1.905701 0.956696 2.249368 -177.960742 3.862260 -176.872584 13.647249 -12.620789 -9.142379 -13.596285 -11.835963 16.990772 69.615721 -51.672850 37.783266 0.000000 0.000000 0.000000 -6.416273 -33.165690 -22.665022 -30.734919 -12.069548 21.713351 89.652761 -38.071001 26.200262 0.000000 0.000000 0.000000 1.495908 -3.056188 14.922803 3.130623 -0.038571 -22.959398 -2.861580 3.203023 30.380880 5.486023 -15.008305 -30.414320 0.000000 0.000000 0.000000 22.259861 -7.256328 -140.564846 77.981264 51.165783 49.222606 -55.912321 -4.375142 -10.947898 0.000000 0.000000 0.000000 14.289872 -37.671219 81.631047 10.376363 76.761486 5.150420 -67.085472 13.212295 0.539420 0.000000 0.000000 0.000000 
1.965693 0.957642 2.263475 -178.599218 0.720832 -177.504814 17.241546 -16.310231 -9.221089 -13.094158 -10.606750 14.119092 57.972874 -48.508203 45.031417 0.000000 0.000000 0.000000 -8.744971 -33.281582 -19.248907 -26.423201 -11.834272 20.793409 88.159139 -31.182389 20.346540 0.000000 0.000000 0.000000 1.883867 -4.174935 16.596256 2.967451 -0.480277 -22.834900 -2.715656 5.405745 29.734499 5.589521 -17.510710 -31.264616 0.000000 0.000000 0.000000 23.130626 -0.434804 -163.790042 86.893261 26.857380 38.696178 -55.117262 15.274322 -20.866818 0.000000 0.000000 0.000000 6.545408 -37.377318 101.699686 -65.403260 77.346876 -55.490082 -69.120344 -5.923445 11.798693 0.000000 0.000000 0.000000 
